<svg width="341" height="51" viewBox="0 0 341 51" fill="none" xmlns="http://www.w3.org/2000/svg">
<g clip-path="url(#clip0_423_69)">
<path fill-rule="evenodd" clip-rule="evenodd" d="M306.901 34.1364C306.901 34.1364 308.732 34.1497 308.743 32.6545L309.527 32.6601C309.527 32.6601 307.173 32.6431 306.389 32.6375C306.385 33.1358 306.38 33.8834 306.901 34.1364Z" fill="#F9CAC5"/>
<path fill-rule="evenodd" clip-rule="evenodd" d="M314.244 31.4482C314.244 31.4482 314.767 31.4519 314.765 31.7011C315.027 31.703 314.771 30.9535 315.292 31.2065C314.511 30.7025 313.461 31.1933 312.675 31.4368C312.671 31.9352 314.5 32.1976 314.244 31.4482Z" fill="#F9CAC5"/>
<path fill-rule="evenodd" clip-rule="evenodd" d="M304.047 30.8762C304.047 30.8762 305.88 30.6402 306.134 31.6389C306.657 31.6427 306.136 31.3897 306.14 30.8913C306.399 31.1424 307.182 31.3972 307.442 31.6483C307.969 31.1537 309.275 31.4124 310.063 30.9197C310.076 29.1753 312.417 30.9367 312.691 29.1942C312.168 29.1904 311.645 29.1866 311.38 29.6831C309.291 29.1696 308.236 30.408 306.926 30.6478C306.141 30.6421 304.837 30.1342 303.786 30.8743L304.047 30.8762Z" fill="#F9CAC5"/>
<path fill-rule="evenodd" clip-rule="evenodd" d="M327.137 20.8255C327.137 20.8255 326.091 20.8179 326.358 20.0722C326.097 20.0703 325.308 20.563 325.83 20.816C325.047 20.5611 323.481 20.0514 322.953 20.7952C322.953 20.7952 323.734 21.2993 322.949 21.2936C323.723 22.7945 326.349 21.3182 327.136 21.0747L327.137 20.8255Z" fill="#F9CAC5"/>
<path fill-rule="evenodd" clip-rule="evenodd" d="M330.795 21.3503C330.795 21.3503 331.318 21.3541 331.322 20.8557C330.799 20.8519 330.797 21.1011 330.276 20.8481C330.274 21.0973 330.799 20.8519 330.795 21.3503Z" fill="#F9CAC5"/>
<path fill-rule="evenodd" clip-rule="evenodd" d="M328.705 21.0858C328.705 21.0858 329.751 21.0934 330.274 21.0972C329.753 20.8442 328.97 20.5893 328.705 21.0858Z" fill="#F9CAC5"/>
<path fill-rule="evenodd" clip-rule="evenodd" d="M338.122 20.9049C338.122 20.9049 337.338 20.8992 336.816 20.6462C336.813 21.1446 337.601 20.6519 338.122 20.9049Z" fill="#F9CAC5"/>
<path fill-rule="evenodd" clip-rule="evenodd" d="M326.619 20.074L327.404 20.0797C327.404 20.0797 326.623 19.5757 326.619 20.074Z" fill="#F9CAC5"/>
<path fill-rule="evenodd" clip-rule="evenodd" d="M328.465 18.0937C328.465 18.0937 326.638 17.5821 326.632 18.3297C327.155 18.3334 327.94 18.3391 328.465 18.0937Z" fill="#F9CAC5"/>
<path fill-rule="evenodd" clip-rule="evenodd" d="M330.299 17.6085C330.299 17.6085 328.992 17.5991 328.728 17.8464C328.725 18.3448 330.555 18.358 330.299 17.6085Z" fill="#F9CAC5"/>
<path fill-rule="evenodd" clip-rule="evenodd" d="M331.342 18.1144L332.126 18.1201C332.126 18.1201 331.609 17.3687 331.345 17.616C331.345 17.616 331.345 17.616 331.342 18.1144Z" fill="#F9CAC5"/>
<path fill-rule="evenodd" clip-rule="evenodd" d="M333.452 15.6376C333.452 15.6376 332.671 15.1335 332.412 14.8824C331.621 15.6244 332.403 16.1284 333.452 15.6376Z" fill="#F9CAC5"/>
<path fill-rule="evenodd" clip-rule="evenodd" d="M336.33 15.6584C336.33 15.6584 336.331 15.4092 335.812 14.907C335.289 14.9032 335.027 14.9013 334.766 14.8994L334.762 15.3978C334.762 15.3978 335.547 15.4035 336.331 15.4092L336.33 15.6584Z" fill="#F9CAC5"/>
<path fill-rule="evenodd" clip-rule="evenodd" d="M334.235 15.6432C334.235 15.6432 334.243 14.6465 333.979 15.143C333.979 15.143 334.239 15.1448 334.235 15.6432Z" fill="#F9CAC5"/>
<path fill-rule="evenodd" clip-rule="evenodd" d="M337.637 15.6679C337.637 15.6679 338.422 15.6736 338.945 15.6774C338.952 14.6806 337.641 15.1695 336.856 15.1639C336.593 15.4112 338.164 15.1733 337.635 15.9171L337.637 15.6679Z" fill="#F9CAC5"/>
<path fill-rule="evenodd" clip-rule="evenodd" d="M339.991 15.6849C339.991 15.6849 339.475 14.6843 339.212 14.9316C339.208 15.43 339.731 15.4338 339.991 15.6849Z" fill="#F9CAC5"/>
<path fill-rule="evenodd" clip-rule="evenodd" d="M308.607 15.2087C308.607 15.2087 309.135 14.2157 308.613 14.4611C308.873 14.463 308.609 14.9595 308.607 15.2087Z" fill="#F9CAC5"/>
<path fill-rule="evenodd" clip-rule="evenodd" d="M331.102 15.1223L331.105 14.6239C331.105 14.6239 330.582 14.6201 329.536 14.6125C329.533 15.1109 330.582 14.6201 331.102 15.1223Z" fill="#F9CAC5"/>
<path fill-rule="evenodd" clip-rule="evenodd" d="M330.586 14.1216C330.586 14.1216 327.446 14.3481 326.665 13.844C326.659 14.5916 327.965 14.8502 327.97 14.1026C329.017 14.1102 329.801 14.1159 330.848 14.1234L330.586 14.1216Z" fill="#F9CAC5"/>
<path fill-rule="evenodd" clip-rule="evenodd" d="M302.602 13.67L303.649 13.6776C303.652 13.1792 302.864 13.6719 302.602 13.67Z" fill="#F9CAC5"/>
<path fill-rule="evenodd" clip-rule="evenodd" d="M324.064 11.8315C322.494 11.8201 321.71 11.8144 320.66 12.3053C320.66 12.3053 320.66 12.3053 320.656 12.8037C321.962 13.0623 323.533 12.8245 324.064 11.8315Z" fill="#F9CAC5"/>
<path fill-rule="evenodd" clip-rule="evenodd" d="M318.311 11.5407C318.311 11.5407 320.142 11.554 319.888 10.5553C319.103 10.5496 319.099 11.048 318.317 10.7931C318.313 11.2915 318.315 11.0423 318.311 11.5407Z" fill="#F9CAC5"/>
<path fill-rule="evenodd" clip-rule="evenodd" d="M259.503 5.63292C259.503 5.63292 258.718 5.62725 258.197 5.37427C258.193 5.87266 258.981 5.37994 259.503 5.63292Z" fill="#F9CAC5"/>
<path fill-rule="evenodd" clip-rule="evenodd" d="M262.921 39.3012C262.921 39.3012 263.19 38.3063 263.978 37.8136C263.978 37.8136 265.547 37.8249 265.278 38.8198C266.59 38.3309 267.629 39.3352 268.413 39.3409C268.417 38.8425 267.89 39.3371 267.894 38.8387C268.684 38.0968 271.29 39.3617 271.043 37.3662C271.307 37.1189 272.093 36.8754 272.356 36.6281C272.089 37.3738 272.349 37.6249 273.13 38.129C273.915 38.1346 272.614 37.1284 273.401 36.8849C273.401 36.8849 273.397 37.3833 273.659 37.3852C274.182 37.3889 274.705 37.3927 274.968 37.1454C277.055 37.9081 280.473 35.4407 282.557 36.7019C283.08 36.7056 283.349 35.7107 282.826 35.707C283.614 35.2142 285.18 35.724 286.747 35.9845C286.749 35.7353 287.01 35.7372 287.014 35.2388C287.276 35.2407 287.533 35.741 287.532 35.9902C288.055 35.994 288.58 35.7486 288.845 35.252C289.891 35.2596 290.935 35.5164 291.192 36.2659C291.455 36.0186 291.195 35.7675 291.197 35.5183C291.72 35.5221 291.459 35.5202 291.982 35.5239C292.245 35.2766 291.983 35.2747 291.987 34.7763C292.51 34.7801 292.245 35.2766 292.77 35.0312C294.612 33.5493 297.732 36.0639 298.537 33.3284C297.49 33.3209 296.188 32.5638 294.878 32.8036C295.407 32.0598 296.713 32.3184 297.241 31.5746C297.765 31.5784 297.757 32.5752 298.544 32.3316C298.547 31.8332 298.551 31.3349 299.078 30.8402C299.597 31.3424 300.118 31.5954 300.901 31.8503C301.693 30.8591 303.784 31.1235 304.058 29.381C305.366 29.3904 305.892 28.8958 307.2 28.9053C307.204 28.4069 306.677 28.9015 306.419 28.4012C306.426 27.4044 306.167 27.1533 305.909 26.653C306.172 26.4057 306.426 27.4044 307.211 27.4101C307.207 27.9085 307.204 28.4069 307.202 28.6561C308.25 28.4144 309.033 28.6693 310.34 28.6788C311.648 28.6882 312.442 27.4479 313.741 28.7034C314.002 28.7052 314.266 28.4579 314.531 27.9614C317.927 28.4844 319.244 27.2479 321.859 27.2668C321.859 27.2668 322.384 27.0214 322.388 26.523C322.907 27.0252 323.434 26.5305 323.961 26.0359C324.484 26.0397 323.957 26.5343 324.48 26.5381C324.484 26.0397 325.788 26.5476 326.055 25.8019C326.055 25.8019 325.532 25.7981 325.537 25.0505C324.488 25.5413 322.397 25.277 322.39 26.2738C320.833 24.518 318.995 25.5016 316.903 25.4865C318.997 25.2524 320.052 24.014 322.406 24.031C321.886 23.5288 323.465 22.2942 323.461 22.7926C323.463 22.5434 322.945 21.792 322.951 21.0444C322.429 20.7914 321.381 21.0331 321.91 20.2892C321.648 20.2874 321.125 20.2836 320.602 20.2798C320.602 20.2798 320.602 20.2798 320.604 20.0306C321.398 18.7903 323.75 19.0565 324.805 17.8181C325.328 17.8219 325.848 18.324 326.113 17.8275C324.547 17.3178 322.969 18.5524 321.663 18.2938C321.928 17.7973 322.453 17.5519 322.98 17.0572C324.807 17.5689 326.647 16.3361 328.741 16.102C328.744 15.6037 328.22 15.8491 328.746 15.3545C329.531 15.3601 329.264 16.1058 329.789 15.8604C329.791 15.6112 329.792 15.362 330.315 15.3658C330.577 15.3677 330.839 15.3696 330.573 15.8661L331.358 15.8718C331.358 15.8718 331.887 15.1279 331.365 14.875C330.056 15.1147 328.75 14.8561 327.705 14.5993C327.967 14.6012 328.225 15.1015 328.221 15.5999C327.96 15.598 327.175 15.5923 326.654 15.3393C326.131 15.3355 326.125 16.0831 325.864 16.0812C325.866 15.8321 325.867 15.5829 325.869 15.3337C324.823 15.3261 323.771 16.0661 322.727 15.8094C323.257 14.8163 324.827 14.8277 324.836 13.5817C325.359 13.5855 324.832 14.0801 325.355 14.0839C325.878 14.0877 326.142 13.8404 326.666 13.5949C326.674 12.5982 325.359 13.5855 325.364 12.8379C324.312 13.5779 322.749 12.819 321.179 12.8076C320.654 13.0531 321.441 12.8095 321.437 13.3079C319.872 12.7982 318.295 13.7836 316.991 13.2758C318.039 13.0341 318.304 12.5376 319.35 12.5452C319.352 12.296 318.827 12.5414 318.831 12.043C318.306 12.2884 317.781 12.5339 317.261 12.0317C317.256 12.7793 315.948 12.7698 315.69 12.2695C315.429 12.2676 315.425 12.766 315.162 13.0133C314.119 12.5074 312.288 12.4941 311.497 13.4853C310.716 12.9812 309.931 12.9755 309.143 13.4682C309.402 13.7193 309.922 14.2215 309.918 14.7199C308.868 15.2107 308.091 14.2083 307.563 14.9521C307.305 14.4518 307.57 13.9553 308.353 14.2102C306.536 12.2034 303.383 14.1742 301.031 13.908C300.508 13.9042 300.252 13.1548 299.465 13.3983C300.519 12.4091 302.606 13.1718 303.136 12.1788C303.659 12.1826 303.132 12.6772 303.656 12.6809C306.009 12.698 307.057 12.4563 309.152 12.2223C309.153 11.9731 309.153 11.9731 309.155 11.7239C309.417 11.7258 309.411 12.4733 310.198 12.2298C310.201 11.7314 311.506 12.2393 311.773 11.4936C313.598 12.2544 314.911 11.5163 316.482 11.2784C316.486 10.78 316.486 10.78 316.753 10.0343C315.707 10.0268 314.918 10.5195 313.872 10.5119C313.872 10.5119 313.876 10.0135 313.616 9.76243C313.879 9.51512 314.662 9.76999 314.408 8.77131C315.191 9.02618 314.935 8.2767 315.719 8.28237C314.152 8.02183 312.319 8.25779 310.485 8.74295C310.744 8.99403 311.792 8.7524 312.052 9.00349L312.047 9.75108C312.047 9.75108 311.002 9.49432 310.743 9.24323C310.743 9.24323 310.741 9.49243 310.739 9.74163C309.953 9.98515 309.168 9.97948 308.647 9.7265C307.862 9.72083 308.118 10.4703 307.333 10.4646C307.072 10.4627 307.339 9.71705 307.342 9.21865C308.394 8.47862 309.166 10.2287 310.219 9.23945C310.223 8.74106 309.696 9.23567 309.7 8.73727C307.084 8.71836 304.202 9.44516 301.85 9.17894C301.327 9.17516 300.542 9.16949 300.284 8.6692C303.161 8.69 307.346 8.72025 310.227 8.24266C310.228 7.99346 310.75 8.24644 310.492 7.74615C311.794 8.5032 313.367 8.01615 314.677 7.77641C315.723 7.78397 317.29 8.04452 317.559 7.04962C316.251 7.04016 314.422 6.77773 312.851 7.01558C312.849 7.26478 313.374 7.01936 313.371 7.51776C313.109 7.51587 312.848 7.51398 312.849 7.26478C311.015 7.74994 308.926 7.23641 307.095 7.22318C307.094 7.47237 306.311 7.2175 306.569 7.71779C306.311 7.2175 305.522 7.71023 304.999 7.70644C305.003 7.20805 303.959 6.95129 304.487 6.20748C303.706 5.70341 301.873 5.93937 301.094 5.1861C301.098 4.68771 301.879 5.19177 301.882 4.69338C301.888 3.94579 301.098 4.68771 300.575 4.68392C298.751 3.6739 296.655 4.15716 294.828 3.64553C294.566 3.64364 294.833 2.89794 294.835 2.64874C293.262 3.13579 290.915 2.12198 289.339 3.10743C288.56 2.35416 285.684 2.08416 285.154 3.07717C283.588 2.56743 280.976 2.05012 279.4 3.03557C277.578 1.77634 274.431 2.99964 273.112 4.48537C273.11 4.73457 274.155 4.99133 274.42 4.49483C274.943 4.49861 274.939 4.99701 275.201 4.9989C274.155 4.99133 273.105 5.48217 272.064 4.72701C272.068 4.22861 272.066 4.47781 272.069 3.97941C270.496 4.46646 267.365 3.44698 266.304 5.433C265.258 5.42544 264.733 5.67085 263.952 5.16678C263.16 6.1579 261.337 5.14787 259.502 5.63303C259.501 5.88223 259.499 6.13143 259.235 6.37874C258.189 6.37117 257.406 6.1163 256.887 5.61412C252.435 6.32957 247.464 6.54284 243.014 7.00909C241.706 6.99964 240.66 6.99207 239.61 7.4829C237.256 7.46588 234.91 6.45207 233.328 8.18511C232.805 8.18133 232.55 7.18265 231.764 7.42617C230.451 8.16431 229.148 7.40726 227.575 7.89431C227.574 8.14351 227.57 8.64191 227.568 8.89111C226.261 8.88165 224.965 7.12781 223.91 8.36624C223.387 8.36245 223.652 7.86595 223.129 7.86217C221.549 9.34601 218.428 6.83134 217.366 9.06656C216.323 8.5606 214.752 8.79845 213.964 9.29117C213.708 8.54169 212.918 9.28361 212.655 9.53092C212.131 9.52713 212.397 9.03063 212.137 8.77954C210.043 9.01361 207.171 8.24522 205.593 9.47986C204.808 9.47419 204.55 8.9739 204.027 8.97012C204.027 8.97012 203.502 9.21553 203.499 9.71393C202.718 9.20986 202.191 9.70447 201.664 10.1991C201.403 10.1972 200.879 10.1934 201.145 9.69691C200.883 9.69502 201.141 10.1953 200.618 10.1915C200.356 10.1896 200.623 9.44393 200.102 9.19095C198.271 9.17772 194.339 10.3953 192.775 9.6364C190.156 10.1159 186.761 9.34371 184.662 10.3254C184.14 10.0724 183.619 9.81942 183.098 9.56644C180.479 10.0459 179.173 9.78727 176.813 10.5178C175.771 10.0119 174.468 9.25484 173.155 9.99297C173.155 9.99297 173.161 9.24538 172.638 9.2416C170.282 9.47378 167.145 9.20189 165.828 10.4384C165.305 10.4346 165.57 9.93814 165.047 9.93435C163.216 9.92112 162.17 9.91355 160.601 9.90221C158.761 11.135 155.379 8.6184 152.749 10.5931C151.445 10.0852 149.879 9.57548 149.087 10.5666C148.564 10.5628 147.525 9.55846 147.258 10.3042C146.212 10.2966 145.168 10.0398 143.599 10.0285L143.074 10.2739C142.289 10.2682 140.985 9.76039 139.933 10.5004C137.323 9.73391 134.699 10.961 132.087 10.4437C130.774 11.1818 129.471 10.4248 128.158 11.1629C127.637 10.9099 127.373 11.1572 127.116 10.657C126.064 11.397 123.456 10.3813 122.666 11.1232C121.627 10.1189 120.312 11.1062 119.265 11.0986C117.958 11.0892 115.873 10.0773 114.558 11.0646C111.686 10.2962 107.75 12.0122 104.882 10.7454C102.256 12.2217 98.6085 10.2016 95.4627 11.1757C90.7602 10.3941 86.0506 10.6093 80.558 10.5696C80.0349 10.5658 80.3001 10.0693 79.777 10.0655C78.7308 10.0579 76.6384 10.0428 75.3343 9.53495C71.9287 10.258 68.7992 8.98929 65.9185 9.46688C65.9185 9.46688 65.9149 9.96528 65.6534 9.96338C65.1339 9.46121 63.8315 8.70416 63.2994 9.94637C62.5184 9.4423 60.9509 9.18175 60.1644 9.42528C59.6485 8.42471 58.0721 9.41015 56.7697 8.6531C54.9335 9.38746 53.3696 8.62852 52.0672 7.87147C51.021 7.86391 49.1902 7.85067 48.6707 7.34849C47.8843 7.59202 47.1014 7.33715 46.3186 7.08228C45.2706 7.32391 43.9646 7.06526 42.3953 7.05391C41.6107 7.04824 40.5645 7.04068 40.0414 7.03689C38.4721 7.02555 37.1716 6.0193 35.3407 6.00607C32.7252 5.98716 30.6419 4.72604 28.021 5.45472C26.9784 4.94876 24.6298 4.18415 23.5746 5.42258C20.4469 3.9047 16.7816 4.37662 12.8601 4.09906C12.337 4.09528 12.595 4.59556 12.0719 4.59178C10.2465 3.83095 7.88712 4.56153 6.31422 5.04858C6.56676 6.29646 5.52237 6.0397 4.99567 6.53431C4.99026 7.2819 5.7623 9.03196 4.45455 9.02251C4.44374 10.5177 2.6075 11.252 1.81564 12.2432C2.07179 12.9927 1.80844 13.24 1.28354 13.4854C1.51806 17.2252 -0.855695 19.9494 0.15807 24.4425C-0.637386 25.932 1.17724 28.188 -0.399259 29.1735C0.641531 29.9286 -0.155727 31.6674 -0.426284 32.9115C0.0914088 33.6628 0.874253 33.9177 1.39375 34.4199C1.90604 35.9189 2.41832 37.4178 3.19396 38.6695C7.10818 39.9438 7.59705 44.6824 11.5095 46.2059C13.6019 46.2211 14.9222 44.4861 17.0074 45.498C19.6301 44.5202 21.7243 44.2861 24.6013 44.3069C25.6475 44.3145 26.6901 44.8204 27.9979 44.8299C29.5671 44.8412 30.8713 45.3491 32.7003 45.6115C35.8389 45.6342 39.2336 46.4064 42.632 46.6801C43.9397 46.6896 45.509 46.7009 46.2937 46.7066C48.386 46.7217 50.2097 47.7318 52.3075 46.9993C52.8306 47.0031 53.0885 47.5034 53.6116 47.5072C54.1347 47.5109 54.3963 47.5128 54.6596 47.2655C55.1827 47.2693 55.1809 47.5185 55.4407 47.7696C61.7178 47.815 68.7742 48.6136 74.5229 49.4028C77.4017 49.1744 80.0136 49.6917 83.1504 49.9636C83.9387 49.4709 84.9795 50.2261 85.7677 49.7333C86.5487 50.2374 87.5931 50.4942 88.6411 50.2525C89.1642 50.2563 89.4294 49.7598 89.6909 49.7617C91.5254 49.2765 94.1337 50.2922 96.2261 50.3074C96.4876 50.3093 96.2279 50.0582 96.751 50.0619C97.274 50.0657 97.5338 50.3168 98.0551 50.5698C99.8859 50.583 101.199 49.8449 102.768 49.8562C105.122 49.8733 107.729 51.1382 109.832 49.6581C110.871 50.6625 112.186 49.6751 113.752 50.1849C114.013 50.1868 114.278 49.6902 114.543 49.1937C115.582 50.1981 118.2 49.9678 119.251 49.2278C119.513 49.2297 120.036 49.2335 120.294 49.7337C122.39 49.2505 125.783 50.2718 128.144 49.2921C128.667 49.2959 128.665 49.545 128.927 49.5469C130.236 49.3072 131.548 48.8183 132.338 48.0763C134.425 48.8391 139.387 49.8718 140.969 48.1387C141.492 48.1425 141.752 48.3936 142.012 48.6447C144.369 48.1633 146.719 48.6787 148.557 47.6952C149.338 48.1992 150.121 48.4541 151.429 48.4636C151.431 48.2144 151.431 48.2144 151.433 47.9652C151.436 47.4668 150.911 47.7122 150.915 47.2138C150.917 46.9646 151.442 46.7192 151.703 46.7211C152.746 47.227 153.788 47.733 154.306 48.4844C156.922 48.5033 159.795 49.0225 161.893 48.29C163.722 48.5525 166.078 48.3203 168.432 48.3373C168.437 47.5897 168.181 46.8402 169.227 46.8478C169.748 47.1008 169.485 47.3481 169.48 48.0957C171.307 48.6073 172.876 48.6186 174.447 48.3808C174.451 47.8824 174.976 47.637 175.237 47.6389C176.022 47.6445 176.803 48.1486 177.321 48.9C180.723 48.6754 183.075 48.9416 186.213 48.9643C186.213 48.9643 186.477 48.717 186.74 48.4697C189.085 49.7327 192.232 48.5094 194.844 49.0267C195.367 49.0305 195.892 48.785 196.417 48.5396C198.248 48.5529 199.812 49.3118 201.127 48.3245C203.999 49.0929 207.408 47.8714 210.543 48.3925C211.069 47.8979 212.906 47.1636 213.685 47.9168C213.685 47.9168 213.946 47.9187 213.95 47.4203C214.993 47.9263 216.3 47.9357 216.831 46.9427C217.877 46.9503 218.135 47.4506 219.443 47.46C219.443 47.46 219.618 47.2952 219.969 46.9654C219.969 46.9654 223.366 47.4884 223.896 46.4954C224.94 46.7522 226.512 46.5143 227.3 46.0216C229.125 46.7824 231.227 45.5515 232.54 44.8134C236.717 45.8405 241.707 43.1352 246.149 43.6657C246.151 43.4166 246.151 43.4166 246.414 43.1692C247.717 43.9263 249.034 42.6898 250.08 42.6973C250.603 42.7011 251.122 43.2033 251.907 43.209C252.43 43.2127 252.957 42.7181 253.743 42.4746C254.528 42.4803 255.309 42.9843 256.097 42.4916C256.62 42.4954 256.092 43.2392 256.878 42.9957C257.663 43.0014 257.147 42.0008 257.932 42.0065C258.455 42.0102 257.928 42.5049 258.451 42.5086C260.024 42.0216 261.343 40.5359 262.122 41.2891L262.921 39.3012ZM288.082 32.256C288.082 32.256 288.082 32.256 288.345 32.0087C289.388 32.5147 289.914 32.02 290.962 31.7784C290.957 32.526 289.909 32.7676 289.642 33.5133C288.857 33.5077 288.076 33.0036 288.082 32.256ZM299.076 31.0894C299.076 31.0894 299.601 30.844 299.864 30.5967C299.861 31.0951 300.384 31.0989 300.382 31.3481C299.859 31.3443 299.341 30.5929 299.078 30.8402L299.076 31.0894ZM274.77 28.4216C274.77 28.4216 275.555 28.4273 276.339 28.4329C276.334 29.1805 275.293 28.4254 274.764 29.1692C274.768 28.6708 274.768 28.6708 274.77 28.4216ZM310.353 26.9344C310.353 26.9344 311.399 26.9419 311.394 27.6895C310.609 27.6839 310.09 27.1817 310.353 26.9344ZM289.972 24.0457C289.972 24.0457 291.285 23.3076 291.28 24.0552C290.757 24.0514 289.97 24.2949 289.972 24.0457ZM299.658 22.8697L300.182 22.8735C300.169 24.6179 298.607 23.6097 297.817 24.3516C297.819 24.1024 297.819 24.1024 297.82 23.8532C298.605 23.8589 298.605 23.8589 299.13 23.6135C299.132 23.3643 299.134 23.1151 298.61 23.1113C297.822 23.604 295.991 23.5908 295.21 23.0867C296.785 22.3505 297.566 22.8546 299.137 22.6167C299.134 23.1151 299.66 22.6205 299.657 23.1189C299.395 23.117 299.391 23.6154 299.653 23.6173C299.916 23.37 299.657 23.1189 299.658 22.8697ZM307.505 22.9264C307.505 22.9264 308.024 23.4286 308.023 23.6778C307.759 23.9251 307.234 24.1705 306.711 24.1667C305.93 23.6627 306.726 22.1732 307.507 22.6772L307.505 22.9264ZM301.747 23.3832C301.747 23.3832 302.272 23.1378 302.795 23.1416L302.79 23.8892C302.79 23.8892 301.744 23.8816 301.747 23.3832ZM300.447 22.377C300.447 22.377 301.498 21.6369 302.281 21.8918L302.276 22.6394C302.276 22.6394 300.703 23.1265 300.447 22.377ZM311.96 21.7126C311.96 21.7126 311.172 22.2053 310.649 22.2015C310.654 21.4539 311.962 21.4634 311.96 21.7126ZM310.129 21.6993C310.129 21.6993 310.126 22.1977 309.603 22.194C309.606 21.6956 309.606 21.6956 310.129 21.6993ZM303.61 18.9109C303.61 18.9109 303.091 18.4087 303.095 17.9103C303.618 17.9141 303.618 17.9141 304.141 17.9179C304.135 18.6655 304.66 18.4201 304.655 19.1677C303.867 19.6604 304.644 20.6628 303.594 21.1537C303.601 20.1569 302.806 21.6464 302.552 20.6477C303.075 20.6515 303.344 19.6566 302.824 19.1544C302.561 19.4017 301.778 19.1469 301.769 20.3928C302.292 20.3966 302.288 20.895 302.285 21.3934C300.975 21.6332 299.676 20.3777 298.625 21.1177C298.623 21.3669 299.148 21.1215 298.883 21.618C298.356 22.1126 298.098 21.6124 297.579 21.1102C297.582 20.6118 298.886 21.1196 298.632 20.121C299.155 20.1247 299.159 19.6263 299.943 19.632C299.943 19.632 299.943 19.632 300.205 19.6339C300.726 19.8869 299.678 20.1285 300.2 20.3815C300.728 19.6377 302.303 18.9014 303.087 18.9071L303.61 18.9109ZM304.653 19.4169C304.653 19.4169 306.484 19.4301 306.753 18.4352C307.014 18.4371 307.27 19.1866 307.537 18.4409C307.02 17.6895 306.763 16.94 307.292 16.1962C308.333 16.9513 307.797 18.6919 307.527 19.936C307.265 19.9342 306.222 19.4282 305.696 19.9228C305.696 19.9228 305.692 20.4212 305.688 20.9196C304.64 21.1612 304.648 20.1644 304.392 19.415L304.653 19.4169ZM311.192 19.4641L311.195 18.9657C311.195 18.9657 312.768 18.4787 313.557 17.986C313.026 18.979 314.599 18.4919 314.857 18.9922C314.596 18.9903 314.852 19.7398 314.33 19.4868C313.288 18.9809 312.501 19.2244 311.713 19.7171C311.715 19.4679 311.453 19.466 311.192 19.4641ZM292.102 18.8277C292.102 18.8277 295.245 18.352 296.556 17.863C296.554 18.1122 297.339 18.1179 297.333 18.8655C296.547 19.109 294.979 18.8485 294.458 18.5955L294.454 19.0939C294.197 18.5936 292.885 19.0826 292.102 18.8277ZM319.834 18.0313C319.834 18.0313 320.617 18.2862 320.876 18.5373C320.353 18.5335 320.086 19.2792 319.567 18.777C319.567 18.777 319.832 18.2805 319.836 17.7821L319.834 18.0313ZM311.985 18.2238C311.985 18.2238 312.247 18.2257 312.51 17.9784L312.507 18.4768L311.984 18.473L311.985 18.2238ZM314.099 15.2486C314.099 15.2486 313.573 15.7432 314.09 16.4946C314.09 16.4946 314.09 16.4946 314.612 16.7475C315.66 16.5059 316.966 16.7645 317.234 15.7696C319.581 16.7835 320.645 14.299 322.469 15.3091C321.416 16.2983 319.329 15.5356 318.273 16.774C316.971 16.017 314.345 17.4932 312.777 17.2327C312.786 15.9867 313.834 15.7451 314.363 15.0013L314.099 15.2486ZM305.465 15.6846C305.465 15.6846 305.73 15.1881 305.993 14.9407C305.99 15.4391 306.513 15.4429 306.507 16.1905C305.984 16.1867 305.986 15.9375 305.465 15.6846ZM303.639 14.9237C303.639 14.9237 304.159 15.4259 304.682 15.4297C304.68 15.6789 304.678 15.9281 304.155 15.9243C304.159 15.4259 302.59 15.4146 303.639 14.9237ZM312.27 14.9861C312.27 14.9861 312.274 14.4877 312.537 14.2404C313.06 14.2442 312.799 14.2423 313.322 14.2461C313.317 14.9937 312.792 15.2391 312.272 14.7369L312.27 14.9861ZM322.474 14.5615C322.474 14.5615 323.257 14.8164 323.254 15.3147L322.469 15.3091C322.469 15.3091 322.471 15.0599 322.474 14.5615ZM284.553 13.7889C284.553 13.7889 286.384 13.8021 286.909 13.5567C286.902 14.5535 284.808 14.7876 284.553 13.7889ZM288.74 13.57C288.74 13.57 289.269 12.8261 289.532 12.5788C289.011 12.3259 288.489 12.0729 287.968 11.8199C288.491 11.8237 288.756 11.3272 289.541 11.3328C290.843 12.0899 289.528 13.0772 289.783 14.0759C288.998 14.0702 288.736 14.0683 288.478 13.5681L288.74 13.57ZM293.971 13.6078C293.971 13.6078 294.496 13.3624 294.763 12.6167L294.756 13.6134C294.756 13.6134 295.802 13.621 295.798 14.1194C295.275 14.1156 294.491 14.1099 294.229 14.1081C294.231 13.8589 294.231 13.8589 293.971 13.6078ZM296.586 13.6267L296.588 13.3775C296.588 13.3775 296.85 13.3794 297.111 13.3813L297.11 13.6305C297.11 13.6305 297.11 13.6305 296.586 13.6267ZM297.903 12.3901C297.903 12.3901 299.213 12.1504 299.473 12.4015C298.428 12.1447 298.683 13.1434 298.159 13.1396C298.159 13.1396 298.163 12.6412 297.903 12.3901ZM307.855 10.7176C307.855 10.7176 307.849 11.4652 307.846 11.9636L307.323 11.9598C307.323 11.9598 307.33 10.963 307.855 10.7176ZM308.371 11.7182C308.371 11.7182 309.155 11.7239 309.153 11.9731C308.63 11.9693 308.896 11.4728 308.371 11.7182ZM240.651 8.23806C240.651 8.23806 241.174 8.24184 241.436 8.24373C241.434 8.49293 241.434 8.49293 241.694 8.74402C241.432 8.74213 241.171 8.74024 240.909 8.73835C240.909 8.73835 240.909 8.73835 240.651 8.23806ZM242.482 8.2513C242.482 8.2513 243.27 7.75857 243.528 8.25886C243.267 8.25697 242.478 8.74969 242.482 8.2513ZM244.051 8.26264C244.051 8.26264 245.359 8.2721 246.405 8.27966C246.4 9.02725 244.307 9.01213 244.051 8.26264ZM300.56 6.67751C300.56 6.67751 302.133 6.19046 302.916 6.44533C302.912 6.94372 302.911 7.19292 302.907 7.69132C301.863 7.43456 301.081 6.93049 300.299 6.67562L300.56 6.67751ZM294.808 6.38671C294.808 6.38671 294.815 5.38992 295.078 5.14261C295.602 5.14639 295.602 5.14639 296.125 5.15017C296.121 5.64857 295.596 5.89399 295.593 6.39238C295.589 6.89078 296.11 7.14376 296.37 7.39485C295.585 7.38917 295.591 6.64158 294.806 6.63591L294.808 6.38671ZM297.165 5.90533C297.165 5.90533 298.471 6.16398 298.466 6.91158C297.943 6.90779 298.204 6.90969 297.681 6.9059C297.685 6.40751 296.898 6.65103 297.167 5.65613L297.165 5.90533ZM271.276 5.21973C271.276 5.21973 271.799 5.22351 272.322 5.22729C272.317 5.97489 271.532 5.96922 271.276 5.21973Z" fill="#F9CAC5"/>
<path fill-rule="evenodd" clip-rule="evenodd" d="M303.497 34.6102C303.506 33.3642 305.072 33.874 306.116 34.1307C306.12 33.6323 306.12 33.6323 306.643 33.6361C306.646 33.1377 306.125 32.8847 305.86 33.3812C305.86 33.3812 305.602 32.881 305.863 32.8829C304.294 32.8715 302.463 32.8583 300.889 33.5945C300.88 34.8405 302.184 35.3484 303.757 34.8613L303.497 34.6102Z" fill="#F9CAC5"/>
</g>
<defs>
<clipPath id="clip0_423_69">
<rect width="47.598" height="339.499" fill="white" transform="matrix(-0.00722965 0.999974 0.999974 0.00722965 0.59082 0.770508)"/>
</clipPath>
</defs>
</svg>
